HIERARCHY
ROOT Hips
{
 OFFSET 0.000000 0.000000 0.000000
 CHANNELS 6 Xposition Yposition Zposition Yrotation Xrotation Zrotation
 JOINT Chest
 {
  OFFSET 0.000000 9.585900 0.002600
  CHANNELS 3 Yrotation Xrotation Zrotation
  JOINT Chest2
  {
   OFFSET 0.000000 9.601200 -0.005300
   CHANNELS 3 Yrotation Xrotation Zrotation
   JOINT Chest3
   {
    OFFSET 0.000000 9.561800 0.000000
    CHANNELS 3 Yrotation Xrotation Zrotation
    JOINT Chest4
    {
     OFFSET 0.000000 9.552100 0.000000
     CHANNELS 3 Yrotation Xrotation Zrotation
     JOINT Neck
     {
      OFFSET 0.000000 14.453000 0.000000
      CHANNELS 3 Yrotation Xrotation Zrotation
      JOINT Head
      {
       OFFSET 0.000000 8.936500 -0.011300
       CHANNELS 3 Yrotation Xrotation Zrotation
       End Site
       {
        OFFSET 0.000000 17.073600 -0.006000
       }
      }
     }
     JOINT RightCollar
     {
      OFFSET -2.921100 9.558500 0.000000
      CHANNELS 3 Yrotation Xrotation Zrotation
      JOINT RightShoulder
      {
       OFFSET -13.519700 0.000000 0.000000
       CHANNELS 3 Yrotation Xrotation Zrotation
       JOINT RightElbow
       {
        OFFSET 0.000000 -29.696600 0.000000
        CHANNELS 3 Yrotation Xrotation Zrotation
        JOINT RightWrist
        {
         OFFSET 0.000000 -24.004700 0.000000
         CHANNELS 3 Yrotation Xrotation Zrotation
         End Site
         {
          OFFSET 0.000000 -17.728500 0.000000
         }
        }
       }
      }
     }
     JOINT LeftCollar
     {
      OFFSET 2.921100 9.558500 0.000000
      CHANNELS 3 Yrotation Xrotation Zrotation
      JOINT LeftShoulder
      {
       OFFSET 13.519700 0.000000 0.000000
       CHANNELS 3 Yrotation Xrotation Zrotation
       JOINT LeftElbow
       {
        OFFSET 0.000000 -29.696600 0.000000
        CHANNELS 3 Yrotation Xrotation Zrotation
        JOINT LeftWrist
        {
         OFFSET 0.000000 -24.004700 0.000000
         CHANNELS 3 Yrotation Xrotation Zrotation
         End Site
         {
          OFFSET 0.000000 -17.728500 0.000000
         }
        }
       }
      }
     }
    }
   }
  }
 }
 JOINT RightHip
 {
  OFFSET -7.771700 -0.012900 -0.001300
  CHANNELS 3 Yrotation Xrotation Zrotation
  JOINT RightKnee
  {
   OFFSET 0.000000 -40.869800 0.001200
   CHANNELS 3 Yrotation Xrotation Zrotation
   JOINT RightAnkle
   {
    OFFSET 0.000000 -39.717900 0.002100
    CHANNELS 3 Yrotation Xrotation Zrotation
    JOINT RightToe
    {
     OFFSET 0.000000 -4.965400 11.033500
     CHANNELS 3 Yrotation Xrotation Zrotation
     End Site
     {
      OFFSET 0.000000 -1.423100 5.872300
     }
    }
   }
  }
 }
 JOINT LeftHip
 {
  OFFSET 7.771700 -0.012900 -0.001300
  CHANNELS 3 Yrotation Xrotation Zrotation
  JOINT LeftKnee
  {
   OFFSET 0.000000 -40.869800 0.001200
   CHANNELS 3 Yrotation Xrotation Zrotation
   JOINT LeftAnkle
   {
    OFFSET 0.000000 -39.717900 0.002100
    CHANNELS 3 Yrotation Xrotation Zrotation
    JOINT LeftToe
    {
     OFFSET 0.000000 -4.965400 11.033500
     CHANNELS 3 Yrotation Xrotation Zrotation
     End Site
     {
      OFFSET 0.000000 -1.423100 5.872300
     }
    }
   }
  }
 }
}
MOTION
Frames: 9
Frame Time: 0.008333
-79.507919 43.828556 18.910849 176.713934 -28.731792 0.113042 -0.934434 18.059893 2.019462 -0.156945 2.062628 0.282887 -0.254459 3.414842 0.465434 -0.964322 15.868676 2.075377 0.912991 15.653223 -3.657899 1.800863 -9.227966 -4.077293 2.092018 2.079334 -7.083381 2.285804 -5.230889 -4.383749 -102.130555 -76.007466 130.922609 -6.930191 7.924455 -36.184214 -8.008928 0.928172 -2.224513 3.120774 -5.250555 2.741879 166.055399 -77.258007 166.073393 11.396324 14.545101 25.255020 -1.567002 -64.329309 8.371351 -138.558674 66.089844 -137.493654 -8.376182 -24.242424 6.873787 0.304821 -0.889372 0.052239 0.911194 -51.256576 -3.597723 175.487274 61.101124 176.115378 -1.120306 -38.338244 0.999681 0.011885 0.099108 -0.030689
-79.492569 43.806905 18.875795 176.665744 -28.528109 0.089767 -0.890444 18.042311 2.084809 -0.155016 2.060565 0.286281 -0.251168 3.411475 0.471171 -0.946124 15.860281 2.105070 0.908311 15.654980 -3.666304 1.797900 -9.225899 -4.085309 2.200156 2.057268 -7.047120 2.594386 -5.394879 -4.581362 -101.537427 -75.989650 130.212298 -6.882042 8.173859 -35.902562 -8.130442 0.871224 -2.265585 2.873073 -5.450045 2.795450 167.353228 -77.325006 165.066177 11.256088 14.619665 25.106473 -1.679468 -64.516743 8.493405 -138.616856 66.089775 -137.527986 -8.328537 -24.239051 6.813865 0.287084 -0.911761 0.074694 0.841515 -51.439122 -3.498988 175.506699 61.044781 176.126682 -1.085238 -38.423539 0.958803 0.006993 0.106997 -0.026501
-79.478768 43.786510 18.843605 176.594427 -28.312736 0.079669 -0.824326 18.010937 2.147548 -0.152765 2.058280 0.289633 -0.247325 3.407858 0.476743 -0.925664 15.851345 2.134618 0.904436 15.654081 -3.676226 1.796120 -9.226570 -4.095122 2.304079 2.038284 -7.017829 2.898274 -5.565902 -4.777601 -100.993034 -75.965276 129.551361 -6.850366 8.416685 -35.627862 -8.235514 0.811522 -2.308036 2.647312 -5.655042 2.853122 168.333686 -77.384611 164.328700 11.168086 14.716111 24.967222 -1.787103 -64.703447 8.602701 -138.690149 66.130106 -137.608592 -8.187635 -24.296927 6.774821 0.183750 -0.805547 0.051071 0.823530 -51.628509 -3.430892 175.543839 60.993412 176.171952 -1.033177 -38.506391 0.915654 0.006661 0.111832 -0.023538
-79.466251 43.768562 18.811945 176.536519 -28.101007 0.065517 -0.771149 17.981700 2.207084 -0.150317 2.056088 0.292786 -0.243219 3.404394 0.482000 -0.904105 15.842747 2.162863 0.903037 15.650185 -3.686745 1.797114 -9.230306 -4.106121 2.409468 2.008834 -6.994383 3.193282 -5.729768 -4.969671 -100.522515 -75.939467 128.962629 -6.827840 8.644018 -35.354031 -8.323899 0.748281 -2.349232 2.442083 -5.863832 2.913591 169.163203 -77.435541 163.710476 11.127837 14.810257 24.831230 -1.846707 -64.910417 8.713232 -138.726562 66.122535 -137.624953 -8.184335 -24.255447 6.744665 0.192120 -0.811172 0.065306 0.798030 -51.815279 -3.360452 175.581757 60.946755 176.213613 -0.999628 -38.584708 0.889198 0.012445 0.116707 -0.026266
-79.458479 43.753468 18.779568 176.472452 -27.899097 0.078785 -0.722099 17.961724 2.240321 -0.147818 2.053842 0.295595 -0.239115 3.400786 0.486775 -0.882562 15.834071 2.188761 0.903735 15.641569 -3.696730 1.800249 -9.239058 -4.117055 2.513143 1.965805 -6.976138 3.475001 -5.884223 -5.151738 -100.107166 -75.909460 128.437349 -6.801319 8.846657 -35.079291 -8.400087 0.681247 -2.384461 2.259250 -6.069711 2.973521 169.951273 -77.468621 163.112762 11.117111 14.882037 24.698178 -1.862055 -65.095201 8.746065 -138.834047 66.137030 -137.699271 -8.174490 -24.277834 6.701561 0.189154 -0.769528 0.069853 0.759259 -51.981846 -3.306717 175.613150 60.912088 176.223349 -0.955754 -38.676339 0.848994 0.011724 0.136582 -0.025432
-79.451905 43.739871 18.748918 176.423178 -27.691275 0.088667 -0.686729 17.935988 2.270160 -0.145174 2.051023 0.298181 -0.234737 3.396259 0.491127 -0.859946 15.823666 2.213387 0.904131 15.628202 -3.705208 1.802702 -9.252923 -4.126309 2.610293 1.916868 -6.962337 3.733121 -6.039015 -5.318006 -99.709160 -75.870759 127.954498 -6.761602 9.019216 -34.809843 -8.473353 0.614014 -2.413186 2.103007 -6.267693 3.028750 170.754315 -77.474602 162.484722 11.107624 14.922138 24.569772 -1.894222 -65.276865 8.743034 -138.969380 66.169600 -137.807496 -8.081542 -24.298239 6.650529 0.132610 -0.772163 0.048106 0.758949 -52.158610 -3.279959 175.636073 60.879034 176.242001 -0.936735 -38.751525 0.835872 0.004104 0.142700 -0.020654
-79.445381 43.728967 18.717435 176.397166 -27.494924 0.086336 -0.670919 17.920536 2.301631 -0.142326 2.047286 0.300564 -0.229910 3.390332 0.495178 -0.835786 15.810352 2.237272 0.903804 15.612965 -3.712502 1.804062 -9.268874 -4.134118 2.704822 1.869157 -6.952318 3.959274 -6.200010 -5.463958 -99.324483 -75.823426 127.516244 -6.708673 9.162026 -34.556952 -8.547779 0.550570 -2.437518 1.975613 -6.454103 3.074119 171.606705 -77.447849 161.798208 11.077733 14.927712 24.444301 -1.930592 -65.460323 8.764163 -139.090687 66.164963 -137.891268 -8.074191 -24.310537 6.623274 0.142979 -0.782508 0.042115 0.745073 -52.327003 -3.253680 175.642043 60.846085 176.246443 -0.922714 -38.815026 0.822232 -0.001315 0.141845 -0.018685
-79.439598 43.720496 18.685199 176.365658 -27.309189 0.089817 -0.651777 17.913913 2.329543 -0.139421 2.042574 0.302741 -0.225013 3.382893 0.498917 -0.811785 15.793882 2.260166 0.903513 15.598582 -3.720862 1.805694 -9.283839 -4.143059 2.799822 1.824759 -6.946031 4.161271 -6.364318 -5.588446 -98.989800 -75.771669 127.149091 -6.651642 9.278656 -34.326124 -8.624325 0.487978 -2.456886 1.882416 -6.623168 3.103865 172.517294 -77.386896 161.048260 11.017195 14.894228 24.321182 -1.957665 -65.633245 8.779986 -139.241774 66.163813 -137.999591 -8.094788 -24.341097 6.605880 0.147696 -0.754555 0.033297 0.747834 -52.479393 -3.245786 175.650412 60.817582 176.260327 -0.894857 -38.880840 0.801192 -0.001075 0.143664 -0.019627
-79.434190 43.712757 18.655182 176.332231 -27.114699 0.094293 -0.630556 17.896562 2.356819 -0.136546 2.036953 0.304973 -0.220298 3.374008 0.502736 -0.788600 15.774237 2.284108 0.903088 15.586178 -3.732660 1.794091 -9.353016 -4.163773 2.889648 1.784920 -6.942889 4.358293 -6.530752 -5.698441 -98.739440 -75.719412 126.871250 -6.597376 9.372044 -34.116858 -8.706938 0.422579 -2.472930 1.825041 -6.771120 3.115826 173.484842 -77.290113 160.242411 10.924875 14.819828 24.206953 -1.990691 -65.816663 8.802190 -139.409250 66.167182 -138.132048 -8.093539 -24.381079 6.588632 0.162087 -0.727554 0.024369 0.755259 -52.642238 -3.241208 175.646826 60.790570 176.264652 -0.871946 -38.941174 0.786754 0.000555 0.143978 -0.026560
